<?xml version="1.0" encoding="iso-8859-1"?>
<!-- Generator: Adobe Illustrator 19.0.0, SVG Export Plug-In . SVG Version: 6.00 Build 0)  -->
<svg version="1.1" id="Capa_1" xmlns="http://www.w3.org/2000/svg" xmlns:xlink="http://www.w3.org/1999/xlink" x="0px" y="0px"
	 viewBox="0 0 512 512" style="enable-background:new 0 0 512 512;" xml:space="preserve">
<path style="fill:#AFEBD2;" d="M512,256c0,141.385-114.615,256-256,256c-109.802,0-203.444-69.136-239.807-166.245h83.172
	c14.901,0,27.706-10.574,30.524-25.207L140,268.043c0,0-0.039-1.02-0.038-2.032c0.001-1.016-0.059-2.033-0.242-3.033
	c-0.82-4.486-2.227-8.858-4.221-12.99L79.984,134.896c-5.687-11.789-17.62-19.282-30.709-19.282h-7.361
	C87.666,45.983,166.457,0,256,0C397.385,0,512,114.615,512,256z"/>
<path style="fill:#5AC3A5;" d="M512,256c0,29.559-5.026,57.939-14.243,84.355c-16.516,8.964-35.439,14.056-55.551,14.056
	c-3.161,0-6.282-0.162-9.379-0.409c0.247,3.097,0.409,6.219,0.409,9.379c0,64.406-52.212,116.618-116.618,116.618
	S200,427.788,200,363.382c0-40.497,20.65-76.161,51.987-97.067c-21.037-21.095-34.045-50.199-34.045-82.344
	c0-50.416,31.995-93.354,76.786-109.631c-3.255-10.729-5.021-22.106-5.021-33.898c0-13.064,2.149-25.627,6.111-37.354
	C418.291,22.215,512,128.16,512,256z"/>
<path style="fill:#147D73;" d="M448.36,290h-20V30h20V290z"/>
<path style="fill:#FFFF91;" d="M509.071,80.711l-63.64,63.64c-3.905,3.905-10.237,3.905-14.142,0l-63.64-63.64
	c-3.905-3.905-3.905-10.237,0-14.142l63.64-63.64c3.905-3.905,10.237-3.905,14.142,0l63.64,63.64
	C512.976,70.474,512.976,76.805,509.071,80.711z"/>
<path style="fill:#FFE13C;" d="M486.825,77.175l-44.929,44.929c-1.953,1.953-5.118,1.953-7.071,0l-44.929-44.929
	c-1.953-1.953-1.953-5.118,0-7.071l44.929-44.929c1.953-1.953,5.118-1.953,7.071,0l44.929,44.929
	C488.777,72.057,488.777,75.223,486.825,77.175z"/>
<path style="fill:#F7D139;" d="M449.06,114.939l-7.164,7.165c-1.953,1.953-5.118,1.953-7.071,0l-44.929-44.929
	c-1.953-1.953-1.953-5.119,0-7.071l44.929-44.929c1.863-1.863,4.819-1.927,6.783-0.235C434.267,36.532,430,50.264,430,65
	C430,84.184,437.212,101.677,449.06,114.939z"/>
<path style="fill:#2D5A5F;" d="M510.863,280C498.763,410.128,389.289,512,256,512c-79.502,0-150.524-36.245-197.467-93.11
	c-24.046-29.128-3.036-73.135,34.734-73.135h6.099c14.901,0,27.706-10.575,30.524-25.207L137.698,280H510.863z"/>
<g>
	<path style="fill:#1E4550;" d="M360,405v10c0,2.762-2.239,5-5,5H220c-2.761,0-5-2.238-5-5v-10c0-2.762,2.239-5,5-5h135
		C357.761,400,360,402.238,360,405z M160,400H44.322c4.715,6.918,9.763,13.591,15.117,20H160c2.761,0,5-2.238,5-5v-10
		C165,402.238,162.761,400,160,400z M410,400c-2.761,0-5,2.238-5,5v10c0,2.762,2.239,5,5,5h42.561
		c5.353-6.409,10.401-13.082,15.117-20H410z"/>
	<path style="fill:#1E4550;" d="M1.137,280h509.726c-0.628,6.748-1.532,13.415-2.672,20H3.809
		C2.669,293.415,1.764,286.748,1.137,280z"/>
</g>
<path style="fill:#FFFF91;" d="M2.26,290C0.782,278.875,0,267.53,0,256c0-54.271,16.902-104.586,45.709-146h289.14
	c13.727,0,26.243,7.858,32.207,20.223L425.28,250.93c2.091,4.334,3.567,8.919,4.427,13.624c0.192,1.048,0.255,2.115,0.254,3.181
	c-0.001,1.061,0.04,2.131,0.04,2.131L426.123,290H2.26z"/>
<path style="fill:#FF7D0A;" d="M424.96,296.04l-5.563,28.892c-2.955,15.346-16.385,26.437-32.013,26.437H18.37
	C8.163,325.96,1.908,298.542,0.377,269.865h402.968C417.171,269.865,427.574,282.463,424.96,296.04z"/>
<path style="fill:#FF640A;" d="M147.344,351.368H18.37C8.163,325.96,1.908,298.542,0.377,269.865h52.859
	C75.791,305.481,108.521,334.012,147.344,351.368z"/>
<path style="fill:#FFE13C;" d="M398.005,269.865h31.677H430l-5.164,26.819h-26.831c-4.501,0-8.15-3.649-8.15-8.15v-10.518
	C389.855,273.514,393.504,269.865,398.005,269.865z"/>
<path style="fill:#41739B;" d="M29.398,136.818h202.393v107.275H0.285C2.053,205.485,12.376,169.115,29.398,136.818z
	 M383.271,231.374l-41.716-89.396c-1.469-3.148-4.628-5.16-8.101-5.16H249.67v107.275h125.5
	C381.711,244.094,386.037,237.3,383.271,231.374z"/>
<path style="fill:#2D5A5F;" d="M39.279,244.094H0.285c1.415-30.891,8.319-60.342,19.736-87.427
	C20.258,187.835,27.119,217.424,39.279,244.094z"/>
<path style="fill:#4191BE;" d="M353.946,366.368c0,35.898-29.102,65-65,65s-65-29.102-65-65s29.102-65,65-65
	S353.946,330.47,353.946,366.368z M28.946,301.368c-8.501,0-16.616,1.638-24.055,4.609c8.698,43.947,28.638,83.846,56.707,116.577
	c19.34-11.257,32.347-32.195,32.347-56.187C93.946,330.47,64.845,301.368,28.946,301.368z"/>
<path style="fill:#87DCFA;" d="M323.946,366.368c0,19.33-15.67,35-35,35s-35-15.67-35-35s15.67-35,35-35
	S323.946,347.038,323.946,366.368z M28.946,331.368c-5.914,0-11.48,1.473-16.364,4.062c7.337,22.499,17.696,43.628,30.614,62.905
	c12.225-5.458,20.75-17.713,20.75-31.967C63.946,347.038,48.276,331.368,28.946,331.368z"/>
<g>
</g>
<g>
</g>
<g>
</g>
<g>
</g>
<g>
</g>
<g>
</g>
<g>
</g>
<g>
</g>
<g>
</g>
<g>
</g>
<g>
</g>
<g>
</g>
<g>
</g>
<g>
</g>
<g>
</g>
</svg>
